HIERARCHY
ROOT Hips
{
  OFFSET 0 0.240689 0
  CHANNELS 6 Xposition Yposition Zposition Zrotation Xrotation Yrotation
  JOINT Bip01_Spine0
  {
    OFFSET 0 -24.7459 49.7988
    CHANNELS 6 Xposition Yposition Zposition Zrotation Xrotation Yrotation
    JOINT Bip01_Pelvis
    {
      OFFSET 0 0 0
      CHANNELS 6 Xposition Yposition Zposition Zrotation Xrotation Yrotation
      JOINT Bip01_Spine0_Tail
      {
        OFFSET -6.47486 -3.86022 0
        CHANNELS 6 Xposition Yposition Zposition Zrotation Xrotation Yrotation
        JOINT Bip01_Spine0_Tail1
        {
          OFFSET 10.3837 -0.00825882 0
          CHANNELS 6 Xposition Yposition Zposition Zrotation Xrotation Yrotation
          JOINT Bip01_Spine0_Tail2
          {
            OFFSET 10.3837 -0.00826263 0
            CHANNELS 6 Xposition Yposition Zposition Zrotation Xrotation Yrotation
            JOINT Bip01_Spine0_Tail3
            {
              OFFSET 10.3837 -0.00825882 0
              CHANNELS 6 Xposition Yposition Zposition Zrotation Xrotation Yrotation
              JOINT Bip01_Spine0_Tail4
              {
                OFFSET 10.3837 -0.00826263 0
                CHANNELS 6 Xposition Yposition Zposition Zrotation Xrotation Yrotation
                End Site
                {
                  OFFSET 0 0 0
                }
              }
            }
          }
        }
      }
      JOINT Bip01_R_Thigh
      {
        OFFSET 0 -1.52588e-005 -8.75617
        CHANNELS 6 Xposition Yposition Zposition Zrotation Xrotation Yrotation
        JOINT Bip01_R_Calf
        {
          OFFSET 19.7638 0 0
          CHANNELS 6 Xposition Yposition Zposition Zrotation Xrotation Yrotation
          JOINT Bip01_R_Foot
          {
            OFFSET 18.6534 0 0
            CHANNELS 6 Xposition Yposition Zposition Zrotation Xrotation Yrotation
            JOINT Bip01_R_Toe0
            {
              OFFSET 5.09145 13.9567 0
              CHANNELS 6 Xposition Yposition Zposition Zrotation Xrotation Yrotation
              JOINT Bip01_R_Toe01
              {
                OFFSET 4.28803 0 0
                CHANNELS 6 Xposition Yposition Zposition Zrotation Xrotation Yrotation
                JOINT Bip01_R_Toe02
                {
                  OFFSET 3.85801 0 0
                  CHANNELS 6 Xposition Yposition Zposition Zrotation Xrotation Yrotation
                  End Site
                  {
                    OFFSET 0 0 0
                  }
                }
              }
            }
          }
        }
      }
      JOINT Bip01_L_Thigh
      {
        OFFSET 0 1.52588e-005 8.75617
        CHANNELS 6 Xposition Yposition Zposition Zrotation Xrotation Yrotation
        JOINT Bip01_L_Calf
        {
          OFFSET 19.7638 0 0
          CHANNELS 6 Xposition Yposition Zposition Zrotation Xrotation Yrotation
          JOINT Bip01_L_Foot
          {
            OFFSET 18.6534 0 0
            CHANNELS 6 Xposition Yposition Zposition Zrotation Xrotation Yrotation
            JOINT Bip01_L_Toe0
            {
              OFFSET 5.09144 13.9567 0
              CHANNELS 6 Xposition Yposition Zposition Zrotation Xrotation Yrotation
              JOINT Bip01_L_Toe01
              {
                OFFSET 4.28802 0 0
                CHANNELS 6 Xposition Yposition Zposition Zrotation Xrotation Yrotation
                JOINT Bip01_L_Toe02
                {
                  OFFSET 3.85801 0 0
                  CHANNELS 6 Xposition Yposition Zposition Zrotation Xrotation Yrotation
                  End Site
                  {
                    OFFSET 0 0 0
                  }
                }
              }
            }
          }
        }
      }
      JOINT Bip01_Spine
      {
        OFFSET 9.14835 -0.00640869 -1.1e-005
        CHANNELS 6 Xposition Yposition Zposition Zrotation Xrotation Yrotation
        JOINT Bip01_Spine1
        {
          OFFSET 8.04366 -0.00638199 0
          CHANNELS 6 Xposition Yposition Zposition Zrotation Xrotation Yrotation
          JOINT Bip01_Spine2
          {
            OFFSET 8.04367 -0.00639343 0
            CHANNELS 6 Xposition Yposition Zposition Zrotation Xrotation Yrotation
            JOINT Bip01_Spine3
            {
              OFFSET 8.04304 -0.00831222 0
              CHANNELS 6 Xposition Yposition Zposition Zrotation Xrotation Yrotation
              JOINT Bip01_Neck
              {
                OFFSET 10.6685 1.06813 0
                CHANNELS 6 Xposition Yposition Zposition Zrotation Xrotation Yrotation
                JOINT Bip01_R_Clavicle
                {
                  OFFSET -3.21661 -4.89635 -9.04802
                  CHANNELS 6 Xposition Yposition Zposition Zrotation Xrotation Yrotation
                  JOINT Bip01_R_UpperArm
                  {
                    OFFSET 19.0492 0 0
                    CHANNELS 6 Xposition Yposition Zposition Zrotation Xrotation Yrotation
                    JOINT Bip01_R_Forearm
                    {
                      OFFSET 10.3706 0 0
                      CHANNELS 6 Xposition Yposition Zposition Zrotation Xrotation Yrotation
                      JOINT Bip01_R_Hand
                      {
                        OFFSET 22.8632 0 0
                        CHANNELS 6 Xposition Yposition Zposition Zrotation Xrotation Yrotation
                        JOINT Bip01_R_Finger0
                        {
                          OFFSET 6.48259 0.103651 0.504496
                          CHANNELS 6 Xposition Yposition Zposition Zrotation Xrotation Yrotation
                          JOINT Bip01_R_Finger01
                          {
                            OFFSET 3.66847 0 0
                            CHANNELS 6 Xposition Yposition Zposition Zrotation Xrotation Yrotation
                            End Site
                            {
                              OFFSET 0 0 0
                            }
                          }
                        }
                      }
                    }
                  }
                }
                JOINT Bip01_L_Clavicle
                {
                  OFFSET -3.21661 -4.89641 9.04797
                  CHANNELS 6 Xposition Yposition Zposition Zrotation Xrotation Yrotation
                  JOINT Bip01_L_UpperArm
                  {
                    OFFSET 19.0492 0 0
                    CHANNELS 6 Xposition Yposition Zposition Zrotation Xrotation Yrotation
                    JOINT Bip01_L_Forearm
                    {
                      OFFSET 10.3706 0 0
                      CHANNELS 6 Xposition Yposition Zposition Zrotation Xrotation Yrotation
                      JOINT Bip01_L_Hand
                      {
                        OFFSET 22.8631 0 0
                        CHANNELS 6 Xposition Yposition Zposition Zrotation Xrotation Yrotation
                        JOINT Bip01_L_Finger0
                        {
                          OFFSET 6.48257 0.103655 -0.504492
                          CHANNELS 6 Xposition Yposition Zposition Zrotation Xrotation Yrotation
                          JOINT Bip01_L_Finger01
                          {
                            OFFSET 3.66844 0 0
                            CHANNELS 6 Xposition Yposition Zposition Zrotation Xrotation Yrotation
                            End Site
                            {
                              OFFSET 0 0 0
                            }
                          }
                        }
                      }
                    }
                  }
                }
                JOINT Bip01_Neck1
                {
                  OFFSET 7.52459 -0.00656509 0
                  CHANNELS 6 Xposition Yposition Zposition Zrotation Xrotation Yrotation
                  JOINT Bip01_Neck2
                  {
                    OFFSET 8.4783 -0.00588226 0
                    CHANNELS 6 Xposition Yposition Zposition Zrotation Xrotation Yrotation
                    JOINT Bip01_Head
                    {
                      OFFSET 8.41606 0 0
                      CHANNELS 6 Xposition Yposition Zposition Zrotation Xrotation Yrotation
                      JOINT EyesBlue
                      {
                        OFFSET 0 0 0
                        CHANNELS 6 Xposition Yposition Zposition Zrotation Xrotation Yrotation
                        JOINT EyesBlue_2
                        {
                          OFFSET 0 -0.500007 0
                          CHANNELS 6 Xposition Yposition Zposition Zrotation Xrotation Yrotation
                          End Site
                          {
                            OFFSET 0 0 0
                          }
                        }
                      }
                      JOINT Bip01_Head2_Eyeleds
                      {
                        OFFSET 6.52751 7.61746 2.2e-005
                        CHANNELS 6 Xposition Yposition Zposition Zrotation Xrotation Yrotation
                        End Site
                        {
                          OFFSET 0 0 0
                        }
                      }
                      JOINT Bip01_Head_Muzzle
                      {
                        OFFSET 2.88628 13.9448 3.88994
                        CHANNELS 6 Xposition Yposition Zposition Zrotation Xrotation Yrotation
                        End Site
                        {
                          OFFSET 0 0 0
                        }
                      }
                      JOINT Bip01_Head1_Jaw
                      {
                        OFFSET 0.271065 1.32405 0
                        CHANNELS 6 Xposition Yposition Zposition Zrotation Xrotation Yrotation
                        JOINT _Bip01_Head11_TungeControler
                        {
                          OFFSET 4.61616 5.82872 0
                          CHANNELS 6 Xposition Yposition Zposition Zrotation Xrotation Yrotation
                          JOINT _Bip01_Ponytail3_tunge
                          {
                            OFFSET 5.17785 2.98805 0
                            CHANNELS 6 Xposition Yposition Zposition Zrotation Xrotation Yrotation
                            JOINT Bip01_Ponytail31
                            {
                              OFFSET 5.57569 0 0
                              CHANNELS 6 Xposition Yposition Zposition Zrotation Xrotation Yrotation
                              JOINT Bip01_Ponytail32
                              {
                                OFFSET 2.93165 0 0
                                CHANNELS 6 Xposition Yposition Zposition Zrotation Xrotation Yrotation
                                JOINT Bip01_Ponytail3Nub
                                {
                                  OFFSET 3.30155 0 0
                                  CHANNELS 6 Xposition Yposition Zposition Zrotation Xrotation Yrotation
                                  End Site
                                  {
                                    OFFSET 0 0 0
                                  }
                                }
                              }
                            }
                          }
                        }
                        JOINT Bip01_Head_JawNub
                        {
                          OFFSET 15.5776 -0.000389099 0
                          CHANNELS 6 Xposition Yposition Zposition Zrotation Xrotation Yrotation
                          End Site
                          {
                            OFFSET 0 0 0
                          }
                        }
                      }
                      JOINT Bip01_Ponytail2
                      {
                        OFFSET 9.40334 1.03973 -6.51764
                        CHANNELS 6 Xposition Yposition Zposition Zrotation Xrotation Yrotation
                        JOINT Bip01_Ponytail21
                        {
                          OFFSET 2.77018 -0.00640106 1.33514e-005
                          CHANNELS 6 Xposition Yposition Zposition Zrotation Xrotation Yrotation
                          End Site
                          {
                            OFFSET 0 0 0
                          }
                        }
                      }
                      JOINT Bip01_Ponytail1
                      {
                        OFFSET 9.40368 1.03969 6.51768
                        CHANNELS 6 Xposition Yposition Zposition Zrotation Xrotation Yrotation
                        JOINT Bip01_Ponytail11
                        {
                          OFFSET 2.77018 -0.00640487 0
                          CHANNELS 6 Xposition Yposition Zposition Zrotation Xrotation Yrotation
                          End Site
                          {
                            OFFSET 0 0 0
                          }
                        }
                      }
                    }
                  }
                }
              }
            }
          }
        }
      }
    }
  }
}
MOTION
Frames:	4
Frame Time:	0.0333333
0 1e-006 -357.501 -0 -90 -0 0 -28.702 35.8936 90 5.9232e-005 80.4619 0 0 0 -89.9999 6.67477e-006 -78.9999 -6.34542 -3.85828 -0.383731 173.522 1.67679 5.19849 10.384 -0.008186 0.000988 5.01277 2.62782 -0.90465 10.383 -0.008205 -0.000920001 -1.97078 -2.47271 -5.17627 10.3841 -0.008098 0.001554 4.02491 4.15618 -6.22151 10.3864 -0.007667 0.000626999 21.2428 1.65911 -5.46604 9e-006 -1.5e-005 -8.75617 -101.563 2.78777 178.294 19.7638 5.68434e-014 7.10543e-015 -91.828 -7.41089e-008 1.00128e-005 18.6534 1.42109e-014 0 -48.5851 1.2972 -3.69994 5.09143 13.9567 -1.20712e-006 70.3988 -2.79352 -4.14847 4.288 3e-006 -1.1724e-013 20 -2.26024e-005 -9.568e-006 3.85799 5.68434e-014 -2.66454e-015 -45 -2.95019e-006 5.88174e-006 -1.5e-005 1.1e-005 8.75617 -157.603 5.57064 -161.041 19.7638 -1.42109e-014 0 -133.828 -1.5594e-005 2.89777e-007 18.6534 0 7.10543e-015 71.4231 3.57648 -1.60683 5.09143 13.9567 1.27726e-007 40.9829 0.391792 4.98468 4.288 1e-006 4.26326e-014 -26 -2.19979e-008 8.68624e-007 3.85799 -5.68434e-014 -3e-006 -45 -1.1896e-005 -1.23743e-005 8.98026 -0.006401 1.7456 0.0447594 -0.00894069 -11.0001 8.04366 -0.006393 3e-006 8.89769e-021 1.00179e-005 -5.08889e-014 8.04451 -0.006015 -0.002032 7.9759 -18.5 0.0152483 8.04304 -0.008319 -4.02469e-010 -4.29873 3.22727e-005 2.69431e-005 10.6685 1.06812 6.91224e-006 -13.2811 -2.81585e-005 3.12836e-005 -2.46762 -5.3129 -9.04801 -158.382 -74.9169 142.001 19.0492 1e-006 -1.13687e-013 95.4149 57.3134 -120.293 10.3706 -1e-006 -2.84217e-014 -102.51 1.33613e-006 1.9666e-006 22.8631 0 0 29.656 27.3303 -14.833 6.48256 0.103653 0.504496 15.8775 -15.4367 1.40645 3.66844 -1e-006 1.42109e-013 40.107 -7.84404e-006 1.45271e-005 -2.46762 -5.31294 9.04798 -158.383 67.4169 -125.499 19.0492 2.84217e-014 3e-006 86.3721 -6.50324 92.7673 10.3706 3e-006 3e-006 -40.4035 -1.31166e-005 -1.14877e-005 22.8631 -3e-006 2.13163e-014 23.1568 -3.94963 18.684 6.48257 0.103649 -0.504494 46.6913 12.6317 -9.05519 3.66844 -7.38964e-013 1e-006 40.1071 4.32181e-005 -2.41215e-005 7.52378 -0.00632 2.03066e-010 -35.5 -2.34551e-005 4.87616e-005 8.47604 -0.006574 2.70001e-005 8.50006 0.00101913 0.000878138 8.41604 -5.68434e-014 7.10543e-015 -55.3708 -7.5392 16.9435 -5.68434e-014 5e-006 -3e-006 -23.1098 1.37701e-015 90 2.49332e-007 -0.500004 9.8448e-007 1.96001e-007 90 90 6.52749 7.61746 2.21969e-005 -99.049 1.52588e-005 -180 2.88629 13.9448 3.88995 -23.1098 1.37701e-015 90 0.271065 1.32405 4.03423e-006 -71.7785 0.000137329 -180 4.61616 5.82873 -6.08996e-006 -120.289 -3.16223e-006 7.7245e-006 5.17783 2.98806 2.92962e-006 133.74 -7.66918e-006 9.75075e-007 5.57566 7e-006 -3e-006 1.83152 1.96632e-006 -2.74934e-007 2.93163 3.2685e-013 -3e-006 -17.65 2.20225e-006 2.0107e-006 3.30154 -7e-006 3e-006 -26.1943 2.15853e-005 -9.28643e-006 15.5776 -0.000396 -7.00006e-006 1.59028e-015 -4.96962e-017 1.59028e-015 9.40333 1.03973 -6.51764 -19.0867 17.2453 20.3009 2.77017 -0.006408 1.49998e-005 2.43503 9.42523e-006 -1.78076e-005 9.40366 1.03968 6.51768 -19.0868 -17.2453 -20.3008 2.77017 -0.006401 -4.99996e-006 2.43503 9.84346e-006 -2.55577e-007 
0 1e-006 -369.417 -0 -90 -0 0 -28.702 36.2295 90 5.92536e-005 80.3286 0 0 0 -89.9999 2.45109e-005 -83.3911 -6.34841 -3.85828 -0.0605284 173.567 2.67793 4.21795 10.384 -0.008186 0.000988 4.9967 3.48126 0.0969988 10.383 -0.008205 -0.00092 -2.06451 -3.26247 -5.56781 10.3841 -0.008098 0.001554 4.12457 5.50002 -6.95547 10.3864 -0.007667 0.000626999 21.2754 2.19731 -5.94791 9e-006 -1.5e-005 -8.75617 -102.464 -1.62273 177.213 19.7638 1.13687e-013 0 -97.075 1.83751e-007 9.94163e-006 18.6534 0 -7.10543e-015 -48.845 1.57415 -3.56433 5.09143 13.9567 -1.14331e-006 70.1866 -2.77807 -4.15876 4.288 3e-006 -1.3145e-013 19.6686 -2.26728e-005 -9.60288e-006 3.85799 -5.68434e-014 -2.66454e-015 -45 -1.10507e-006 5.7622e-006 -1.5e-005 1.1e-005 8.75617 -147.016 4.91699 -165.614 19.7638 0 7.10543e-015 -118.792 -1.44945e-005 3.95453e-006 18.6534 0 0 47.7786 3.48855 -0.369177 5.09143 13.9567 8.62773e-008 64.3428 1.69844 4.11241 4.288 1e-006 0 -9.55599 -1.51446e-006 2.25586e-007 3.85799 5.68434e-014 -3e-006 -40.6366 -1.18689e-005 -1.07122e-005 8.98026 -0.006401 1.39613 0.0453668 -0.00726011 -8.79787 8.04366 -0.006393 3e-006 -5.08889e-014 1.00179e-005 8.74653e-015 8.04451 -0.006015 -0.002032 7.97413 -14.7962 0.011956 8.04304 -0.008319 4.37734e-009 -4.29873 -1.92202e-007 2.44755e-005 10.6685 1.06812 6.90549e-006 -13.2811 -2.9724e-005 3.12004e-005 -2.46762 -5.3129 -9.04801 -158.429 -74.1727 140.936 19.0492 1e-006 0 110.355 68.0228 -132.391 10.3706 -1e-006 -3.55271e-014 -78.5302 6.9752e-006 1.78816e-006 22.8631 2.84217e-014 -1.42109e-014 -0.723963 19.1399 -14.8231 6.48256 0.103653 0.504496 11.2321 -15.4964 0.175415 3.66844 -1e-006 2.55795e-013 40.107 -7.06747e-006 1.91076e-005 -2.46762 -5.31294 9.04798 -158.92 68.625 -130.8 19.0492 3.73035e-014 3e-006 86.5641 5.47858 88.0444 10.3706 3e-006 3e-006 -71.6482 -4.28879e-006 -1.9042e-005 22.8631 -3e-006 9.23705e-014 34.0856 -3.54277 19.5159 6.48257 0.103649 -0.504494 42.6379 13.2295 -8.14779 3.66844 -2.27374e-013 1e-006 40.1071 3.58257e-005 -5.68984e-006 7.52378 -0.00632 6.92957e-011 -35 -2.24236e-005 4.96663e-005 8.47604 -0.006574 2.7e-005 8.50006 0.00101899 0.00087808 8.41604 -8.52651e-014 -7.10543e-015 -55.3002 -7.31658 15.748 -6.39489e-014 5e-006 -3e-006 -23.1098 1.37701e-015 90 2.51979e-007 -0.500004 9.84359e-007 1.98701e-007 90 90 6.52749 7.61746 2.22172e-005 -99.049 1.52588e-005 -180 2.88629 13.9448 3.88995 -23.1098 1.37701e-015 90 0.271065 1.32405 4.03775e-006 -71.7785 0.00012207 -180 4.61616 5.82873 -7.24401e-006 -120.289 2.95274e-006 -2.07111e-006 5.17783 2.98806 2.9091e-006 133.74 -1.04057e-005 1.2593e-006 5.57566 7e-006 -3e-006 1.83152 2.60003e-006 -3.71089e-007 2.93163 4.90274e-013 -3e-006 -17.65 1.22052e-005 2.73029e-006 3.30154 -7e-006 3e-006 -26.1943 1.55398e-005 -1.27036e-005 15.5776 -0.000396 -6.99999e-006 -7.95139e-016 2.98177e-016 -1.19271e-015 9.40333 1.03973 -6.51764 -19.0867 17.2453 20.3009 2.77017 -0.006408 1.49997e-005 2.43503 9.42878e-006 -1.78108e-005 9.40366 1.03968 6.51768 -19.0868 -17.2453 -20.3008 2.77017 -0.006401 -4.99998e-006 2.43503 9.8581e-006 -2.63302e-007 
0 1e-006 -381.333 -0 -90 -0 0 -28.702 36.5655 90 5.43191e-006 80.1952 0 0 0 -89.9999 7.83313e-006 -87.7824 -6.35139 -3.85828 0.262679 173.645 3.68082 3.23708 10.384 -0.008186 0.000988 4.95071 4.3336 1.10049 10.383 -0.008205 -0.00092 -2.16886 -4.05038 -5.96241 10.3841 -0.008098 0.001554 4.25903 6.83882 -7.6966 10.3864 -0.007667 0.000626999 21.3171 2.73441 -6.43068 9e-006 -1.5e-005 -8.75617 -103.534 -6.02454 176.111 19.7638 5.68434e-014 0 -102.322 1.59893e-006 9.78714e-006 18.6534 1.42109e-014 -7.10543e-015 -49.1062 1.85119 -3.42877 5.09143 13.9567 -1.09348e-006 69.9743 -2.76264 -4.16902 4.288 3e-006 -1.53211e-013 19.3371 -2.27909e-005 -9.61453e-006 3.85799 0 -3.10863e-015 -45 2.09784e-006 5.62302e-006 -1.5e-005 1.1e-005 8.75617 -136.546 4.20039 -170.177 19.7638 0 7.10543e-015 -103.756 -1.24749e-005 7.34854e-006 18.6534 -5.68434e-014 -7.10543e-015 24.1375 3.39897 0.868261 5.09143 13.9567 7.08923e-008 87.7439 3.32249 3.1048 4.288 1e-006 -2.84217e-014 6.88829 2.0049e-006 1.03609e-005 3.85799 -1.98952e-013 -3e-006 -36.2732 -1.72949e-005 -1.27463e-005 8.98027 -0.006401 1.04667 0.0458566 -0.00553975 -6.59571 8.04366 -0.006393 3e-006 3.18055e-015 1.00179e-005 -0 8.04451 -0.006015 -0.002032 7.97276 -11.0926 0.00882491 8.04304 -0.008319 3.00953e-009 -4.29873 8.89459e-006 2.51816e-005 10.6685 1.06812 6.91121e-006 -13.2811 -3.04347e-005 3.12709e-005 -2.46762 -5.3129 -9.04801 -158.383 -73.4173 139.95 19.0492 1e-006 -5.68434e-014 142.79 76.8506 -161.321 10.3706 -1e-006 -2.84217e-014 -54.3107 4.15302e-005 1.11178e-006 22.8631 2.13163e-014 -1.42109e-014 -31.4494 10.9025 -15.115 6.48256 0.103653 0.504496 6.53949 -15.4619 -1.08619 3.66844 -1e-006 1.7053e-013 40.107 2.54829e-005 1.49133e-005 -2.46762 -5.31294 9.04798 -158.906 69.6348 -136.681 19.0492 7.4607e-014 3e-006 87.5785 17.9279 84.6007 10.3706 3e-006 3e-006 -102.893 8.29766e-006 -2.22536e-005 22.8631 -3e-006 1.56319e-013 45.003 -3.13915 20.3481 6.48257 0.103649 -0.504494 38.5615 13.7637 -7.19602 3.66844 -1.13687e-013 1e-006 40.1071 3.06604e-005 -1.33653e-006 7.52378 -0.00632 -4.20677e-011 -34.5 -2.15268e-005 5.04347e-005 8.47604 -0.006574 2.7e-005 8.50006 0.00101887 0.000878026 8.41604 -5.68434e-014 0 -55.2192 -7.08773 14.5539 -5.68434e-014 5e-006 -3e-006 -23.1098 1.37701e-015 90 2.54473e-007 -0.500004 9.84613e-007 8.93503e-007 90 90 6.52749 7.61746 2.22348e-005 -99.049 1.52588e-005 -180 2.88629 13.9448 3.88995 -23.1098 1.37701e-015 90 0.271065 1.32405 4.04081e-006 -71.7785 0.00012207 -180 4.61616 5.82873 -8.50704e-006 -120.289 9.61372e-006 -1.27918e-005 5.17783 2.98806 2.88829e-006 133.74 -1.27194e-005 1.54765e-006 5.57566 7e-006 -3e-006 1.83152 2.9639e-006 -4.53855e-007 2.93163 6.18172e-013 -3e-006 -17.65 2.16282e-005 3.40475e-006 3.30154 -7e-006 3e-006 -26.1943 9.79843e-006 -1.59274e-005 15.5776 -0.000396 -6.9999e-006 -7.95139e-016 3.72721e-016 -4.96962e-017 9.40333 1.03973 -6.51764 -19.0867 17.2453 20.3009 2.77017 -0.006408 1.49997e-005 2.43503 9.42989e-006 -1.78124e-005 9.40366 1.03968 6.51768 -19.0868 -17.2453 -20.3008 2.77017 -0.006401 -5e-006 2.43503 9.87424e-006 -2.71191e-007 
0 1e-006 -393.25 -0 -90 -0 0 -28.702 36.9014 90 5.47578e-006 80.0619 0 0 0 -89.9999 7.58462e-006 -92.1736 -6.35438 -3.85828 0.58588 173.758 4.68455 2.25502 10.384 -0.008186 0.000988 4.87474 5.18402 2.10647 10.383 -0.008205 -0.00092 -2.2839 -4.83632 -6.36022 10.3841 -0.008098 0.001554 4.42864 8.17184 -8.44607 10.3864 -0.007667 0.000626998 21.368 3.27029 -6.91442 9e-006 -1.5e-005 -8.75617 -104.776 -10.4126 174.967 19.7638 -5.68434e-014 2.13163e-014 -107.569 4.8702e-006 9.55062e-006 18.6534 1.77636e-014 -2.13163e-014 -49.3687 2.12827 -3.29324 5.09143 13.9567 -1.05334e-006 69.7621 -2.74722 -4.17924 4.288 3e-006 -1.82077e-013 19.0057 -2.29881e-005 -9.5898e-006 3.85799 0 -4.44089e-016 -45 -5.9394e-005 5.45641e-006 -1.5e-005 1.1e-005 8.75617 -126.199 3.43544 -174.728 19.7638 -5.68434e-014 0 -88.7194 -9.76438e-006 1.02393e-005 18.6534 0 -7.10543e-015 0.500619 3.30787 2.10545 5.09143 13.9567 8.47685e-008 111.217 4.82404 1.31636 4.288 1e-006 -7.81597e-014 23.3323 0.000112185 1.17629e-005 3.85799 -5.98987e-012 -3e-006 -31.9098 -0.000109511 -6.94904e-005 8.98027 -0.006401 0.697193 0.046199 -0.00378609 -4.39347 8.04366 -0.006393 3e-006 4.6118e-014 1.00179e-005 3.97569e-015 8.04451 -0.006015 -0.002032 7.97182 -7.38882 0.00580052 8.04304 -0.008319 2.17467e-009 -4.29873 1.41373e-005 2.56126e-005 10.6685 1.06812 6.92037e-006 -13.2811 -3.08096e-005 3.13837e-005 -2.46762 -5.3129 -9.04801 -158.425 -72.6691 138.885 19.0492 1e-006 0 118.445 77.3818 -134.034 10.3706 -1e-006 0 -47.219 3.74356e-005 1.06058e-006 22.8631 0 -2.84217e-014 -31.226 3.73173 -19.3264 6.48256 0.103653 0.504496 1.87223 -15.3273 -2.3167 3.66844 -1e-006 1.98952e-013 40.107 1.54781e-005 1.45469e-005 -2.46762 -5.31294 9.04798 -158.382 70.4164 -143.101 19.0492 1.27898e-013 3e-006 89.1215 30.7013 82.2166 10.3706 3e-006 3e-006 -134.138 2.34573e-005 -1.93811e-005 22.8631 -3e-006 2.62901e-013 55.9088 -2.73903 21.1807 6.48257 0.103649 -0.504494 34.4622 14.2312 -6.20407 3.66844 0 1e-006 40.1071 1.4345e-005 2.43824e-006 7.52378 -0.00632 -1.36154e-010 -34 -2.07407e-005 5.10972e-005 8.47604 -0.006574 2.7e-005 8.50006 0.00101875 0.000877972 8.41604 0 0 -55.1277 -6.85298 13.3612 -7.10543e-014 5e-006 -3e-006 -23.1098 1.37701e-015 90 2.56796e-007 -0.500004 9.85226e-007 -4.75184e-007 90 90 6.52749 7.61746 2.22498e-005 -99.049 1.52588e-005 -180 2.88629 13.9448 3.88995 -23.1098 1.37701e-015 90 0.271065 1.32405 4.04343e-006 -71.7785 0.000106812 -180 4.61616 5.82873 -9.05702e-006 -120.289 1.27522e-005 -1.74601e-005 5.17783 2.98806 2.86681e-006 133.74 -1.22887e-005 1.84514e-006 5.57566 7e-006 -3e-006 1.83152 1.72874e-006 -4.49187e-007 2.93163 6.89226e-013 -3e-006 -17.65 2.67361e-005 3.73499e-006 3.30154 -7e-006 3e-006 -26.1943 6.83832e-006 -1.77239e-005 15.5776 -0.000396 -6.99986e-006 -3.18055e-015 -6.95746e-016 3.97569e-016 9.40333 1.03973 -6.51764 -19.0867 17.2453 20.3009 2.77017 -0.006408 1.49997e-005 2.43503 9.42876e-006 -1.78127e-005 9.40366 1.03968 6.51768 -19.0868 -17.2453 -20.3008 2.77017 -0.006401 -5.00002e-006 2.43503 9.89144e-006 -2.79168e-007 
